<?xml version="1.0" encoding="UTF-8"?>
<svg version="1.1" xmlns="http://www.w3.org/2000/svg" width="30" height="30">
<path d="M0 0 C1.17175781 -0.00386719 1.17175781 -0.00386719 2.3671875 -0.0078125 C3.57761719 0.00378906 3.57761719 0.00378906 4.8125 0.015625 C5.61945312 0.00789062 6.42640625 0.00015625 7.2578125 -0.0078125 C8.03898437 -0.00523438 8.82015625 -0.00265625 9.625 0 C10.33269531 0.00225586 11.04039063 0.00451172 11.76953125 0.00683594 C14.2241778 0.31777348 15.74662911 0.89812241 17.8125 2.265625 C20.58556507 6.45143566 20.21687362 10.84826972 20.25 15.703125 C20.28287109 16.54939453 20.31574219 17.39566406 20.34960938 18.26757812 C20.38562483 22.44864497 20.15753063 24.71088375 17.91015625 28.32421875 C13.51651487 31.07786284 9.89969484 31.00121619 4.8125 30.890625 C3.92304688 30.90996094 3.03359375 30.92929687 2.1171875 30.94921875 C-2.16992378 30.91722538 -4.59698471 30.63572097 -8.28515625 28.32421875 C-10.94630891 24.04560985 -10.81670617 20.63861907 -10.625 15.703125 C-10.61919922 14.85298828 -10.61339844 14.00285156 -10.60742188 13.12695312 C-10.46176637 5.6985226 -10.46176637 5.6985226 -8.1875 2.265625 C-5.44380334 0.44943586 -3.25595835 0.01037874 0 0 Z M-5.1875 5.265625 C-7.3570334 8.51249519 -7.48544659 11.35617424 -7.5 15.203125 C-7.51675781 16.22277344 -7.53351562 17.24242187 -7.55078125 18.29296875 C-7.13784971 21.67190314 -6.19188554 23.53946559 -4.1875 26.265625 C-1.24827067 27.73523966 1.41658972 27.47482362 4.6875 27.515625 C5.92242187 27.54140625 7.15734375 27.5671875 8.4296875 27.59375 C11.99803109 27.24762891 13.35032138 26.8110657 15.8125 24.265625 C16.86586511 21.10552967 17.01282888 18.7103114 17.0625 15.390625 C17.08828125 14.36195312 17.1140625 13.33328125 17.140625 12.2734375 C16.76263318 8.80851249 15.9769451 6.98580601 13.8125 4.265625 C8.16271607 1.90193989 0.1844633 2.6451551 -5.1875 5.265625 Z " fill="#FFFFFF" transform="translate(10.1875,-0.265625)"/>
<path d="M0 0 C4.0743356 0.84881992 5.54405875 2.30225596 8 5.625 C8.625 8.625 8.625 8.625 8 11.625 C5.54405875 14.94774404 4.0743356 16.40118008 0 17.25 C-4.0743356 16.40118008 -5.54405875 14.94774404 -8 11.625 C-8.625 8.625 -8.625 8.625 -8 5.625 C-5.54405875 2.30225596 -4.0743356 0.84881992 0 0 Z M-4 5.625 C-4.04254356 7.62454746 -4.04080783 9.62541636 -4 11.625 C-2.88163776 12.96904775 -2.88163776 12.96904775 0 12.75 C2.88163776 12.96904775 2.88163776 12.96904775 4 11.625 C4.16666667 8.625 4.16666667 8.625 4 5.625 C2.94775333 4.34943182 2.94775333 4.34943182 0.5625 4.5 C-1.98978622 4.45193324 -1.98978622 4.45193324 -4 5.625 Z " fill="#FFFFFF" transform="translate(15,6.375)"/>
<path d="M0 0 C1.32 0.33 2.64 0.66 4 1 C4 1.99 4 2.98 4 4 C2.68 4 1.36 4 0 4 C0 2.68 0 1.36 0 0 Z " fill="#FFFFFF" transform="translate(21,5)"/>
</svg>
