<?xml version="1.0" encoding="UTF-8"?>
<svg version="1.1" xmlns="http://www.w3.org/2000/svg" width="25" height="24">
<path d="M0 0 C2.4375 1.6875 2.4375 1.6875 4 4 C4.25 6.75 4.25 6.75 4 9 C4.99 9.33 5.98 9.66 7 10 C7 10.66 7 11.32 7 12 C6.34 12.66 5.68 13.32 5 14 C5.33 14.66 5.66 15.32 6 16 C6.99 16.33 7.98 16.66 9 17 C9 17.99 9 18.98 9 20 C8.01 20 7.02 20 6 20 C6 20.66 6 21.32 6 22 C0.81341951 23.79942588 -2.50096751 24.12017329 -8 23 C-8.969375 22.814375 -9.93875 22.62875 -10.9375 22.4375 C-11.9584375 22.2209375 -11.9584375 22.2209375 -13 22 C-13 21.34 -13 20.68 -13 20 C-13.99 20 -14.98 20 -16 20 C-16 19.01 -16 18.02 -16 17 C-14.68 16.67 -13.36 16.34 -12 16 C-12 15.01 -12 14.02 -12 13 C-12.66 12.67 -13.32 12.34 -14 12 C-13.67 11.01 -13.34 10.02 -13 9 C-12.34 9 -11.68 9 -11 9 C-11.0825 8.2575 -11.165 7.515 -11.25 6.75 C-11 4 -11 4 -9.4375 1.6875 C-6.07228821 -0.64226201 -4.01027077 -0.57289582 0 0 Z " fill="#FFFFFF" transform="translate(16,0)"/>
</svg>
