<?xml version="1.0" encoding="UTF-8"?>
<svg version="1.1" xmlns="http://www.w3.org/2000/svg" width="29" height="30">
<path d="M0 0 C3.48030854 -0.55712449 6.54540915 -0.78653631 10 0 C12.66561407 2.67082035 14.35182607 5.62325341 16 9 C19.54250765 5.56736221 19.54250765 5.56736221 22.5625 1.6875 C23.036875 1.130625 23.51125 0.57375 24 0 C25.32 0 26.64 0 28 0 C26.55575365 3.23861303 24.74227753 5.61969163 22.375 8.25 C21.74335938 8.95640625 21.11171875 9.6628125 20.4609375 10.390625 C19.97882812 10.92171875 19.49671875 11.4528125 19 12 C21.20120852 16.79631752 24.34153331 20.98465169 27.3203125 25.3203125 C29 28 29 28 29 30 C25.48733728 30.63609586 22.48566369 30.86003313 19 30 C15.91813833 26.91272205 14.20347041 23.83212245 12 20 C9.36 23.3 6.72 26.6 4 30 C2.68 29.67 1.36 29.34 0 29 C0.6496875 28.24074219 1.299375 27.48148438 1.96875 26.69921875 C2.8040625 25.70535156 3.639375 24.71148438 4.5 23.6875 C5.3353125 22.70136719 6.170625 21.71523438 7.03125 20.69921875 C9.29464174 18.15285712 9.29464174 18.15285712 9 15 C7.55265904 12.74570902 6.08016758 10.5942152 4.5 8.4375 C0 2.25506757 0 2.25506757 0 0 Z M5 2 C6.65452502 7.16910612 9.79730207 11.21252309 12.9375 15.5625 C13.74477539 16.69461914 13.74477539 16.69461914 14.56835938 17.84960938 C16.03757355 19.90578457 17.51160157 21.95767105 19 24 C19.51248291 24.74113037 20.02496582 25.48226074 20.55297852 26.24584961 C21.03049561 26.82471924 21.5080127 27.40358887 22 28 C22.66 28 23.32 28 24 28 C22.47805217 23.49367402 19.98099313 19.91822632 17.1875 16.125 C16.32682292 14.94010417 15.46614583 13.75520833 14.60546875 12.5703125 C14.1779834 11.98926758 13.75049805 11.40822266 13.31005859 10.80957031 C12.39895072 9.55106648 11.50733472 8.27831479 10.63134766 6.99511719 C9.46719934 5.29738309 8.23847922 3.64429669 7 2 C6.34 2 5.68 2 5 2 Z " fill="#FFFFFF" transform="translate(0,0)"/>
</svg>
