<svg xmlns="http://www.w3.org/2000/svg" viewBox="0 0 512 512" width="48" height="48" fill="black">
    <path d="M256 0a256 256 0 1 0 0 512A256 256 0 0 0 256 0zm144 256c0 24.1-3.4 47.3-9.8 69.1h-74.5c1.5-13.2 2.3-27 2.3-41s-.8-27.8-2.3-41h74.5c6.4 21.8 9.8 45 9.8 69.1zM208.1 464.3c-7.2-3.2-14.1-6.9-20.6-11.1c5.3-11.7 12.4-28.2 19.1-49.2h98.8c6.7 21 13.8 37.5 19.1 49.2c-6.5 4.2-13.4 7.9-20.6 11.1c-28.1 12.6-64.6 12.6-92.8 0zM153.7 369.1h-74.5C72.8 347.3 69.4 324.1 69.4 300s3.4-47.3 9.8-69.1h74.5c-1.5 13.2-2.3 27-2.3 41s.8 27.8 2.3 41zm128.4-41c0 13.2-.7 26.8-2.2 40h-97.8c-1.5-13.2-2.2-26.8-2.2-40s.7-26.8 2.2-40h97.8c1.5 13.2 2.2 26.8 2.2 40zM69.4 185.1h74.5c-1.5 13.2-2.3 27-2.3 41s.8 27.8 2.3 41H69.4c-6.4-21.8-9.8-45-9.8-69.1s3.4-47.3 9.8-69.1zm85.3 69.1c0-13.2.7-26.8 2.2-40h97.8c1.5 13.2 2.2 26.8 2.2 40s-.7 26.8-2.2 40h-97.8c-1.5-13.2-2.2-26.8-2.2-40zm115.6-69.1h-98.8c-6.7-21-13.8-37.5-19.1-49.2c6.5-4.2 13.4-7.9 20.6-11.1c28.1-12.6 64.6-12.6 92.8 0c7.2 3.2 14.1 6.9 20.6 11.1c-5.3 11.7-12.4 28.2-19.1 49.2zm86.3 69.1c0-13.2-.7-26.8-2.2-40h-97.8c-1.5 13.2-2.2 26.8-2.2 40s.7 26.8 2.2 40h97.8c1.5-13.2 2.2-26.8 2.2-40zm25.1-40h74.5c6.4 21.8 9.8 45 9.8 69.1s-3.4 47.3-9.8 69.1h-74.5c1.5-13.2 2.3-27 2.3-41s-.8-27.8-2.3-41h-74.5c-6.7-21-13.8-37.5-19.1-49.2c6.5-4.2 13.4-7.9 20.6-11.1c28.1-12.6 64.6-12.6 92.8 0c7.2 3.2 14.1 6.9 20.6 11.1c5.3 11.7 12.4 28.2 19.1 49.2h-74.5z"/>
</svg>
